<svg xmlns="http://www.w3.org/2000/svg" xmlns:xlink="http://www.w3.org/1999/xlink" style="background: #fff;" viewBox="0 0 370 302"><defs><path id="reuse-1" stroke="#979797" stroke-linecap="square" d="M.5 32.5h337"/><path id="reuse-0" stroke="#979797" d="M.5.5h337v24H.5z"/><path id="a" d="M0 0h338v25H0z"/></defs><defs><use xlink:href="#a"/><use id="b" xlink:href="#a"/></defs><g fill="none" fill-rule="evenodd"><g transform="translate(16 218)"><path stroke="#979797" stroke-linecap="square" d="M.5 58.5h337"/><circle cx="108.5" cy="58.5" r="10.5" fill="#BB7DFF" stroke="#656565"/><circle cx="188.5" cy="58.5" r="10.5" fill="#BB7DFF" stroke="#656565"/><circle cx="229.5" cy="58.5" r="10.5" fill="#BB7DFF" stroke="#656565"/><circle cx="309.5" cy="58.5" r="10.5" fill="#BB7DFF" stroke="#656565"/><text fill="#000" font-family="PTSans-Regular, PT Sans" font-size="12"><tspan x="0" y="11">Каждый элемент — такой же объект, </tspan> <tspan x="0" y="25">но появляются они только, если курсор </tspan> <tspan x="0" y="39">был в пределах 15 пк от кнопки</tspan></text></g><g transform="translate(16 177)"><use fill="#D8D8D8" xlink:href="#a"/><use xlink:href="#reuse-0"/></g><text fill="#000" font-family="PTSans-Regular, PT Sans" font-size="12" transform="translate(16 177)"><tspan x="76" y="16">({x, y}) =&gt; inRange(x) &amp;&amp; inRange(y)</tspan></text><g transform="translate(16 117)"><use stroke-linecap="square" xlink:href="#reuse-1"/><circle cx="68.5" cy="32.5" r="10.5" fill="#669FFF" stroke="#717171"/><circle cx="27.5" cy="32.5" r="10.5" fill="#669FFF" stroke="#717171"/><circle cx="108.5" cy="32.5" r="10.5" fill="#669FFF" stroke="#717171"/><circle cx="148.5" cy="32.5" r="10.5" fill="#669FFF" stroke="#717171"/><circle cx="188.5" cy="32.5" r="10.5" fill="#669FFF" stroke="#717171"/><circle cx="229.5" cy="32.5" r="10.5" fill="#669FFF" stroke="#717171"/><circle cx="269.5" cy="32.5" r="10.5" fill="#669FFF" stroke="#717171"/><circle cx="309.5" cy="32.5" r="10.5" fill="#669FFF" stroke="#717171"/><text fill="#000" font-family="PTSans-Regular, PT Sans" font-size="12"><tspan x="0" y="11">Каждый элемент — объект с полями x, y</tspan></text></g><g transform="translate(16 77)"><use fill="#D8D8D8" xlink:href="#b"/><use xlink:href="#reuse-0"/></g><text fill="#000" font-family="PTSans-Regular, PT Sans" font-size="12" transform="translate(16 77)"><tspan x="48.9" y="16">(event: MouseEvent) =&gt; ({x: event.x, y: event.y})</tspan></text><g transform="translate(16 14)"><use stroke-linecap="square" xlink:href="#reuse-1"/><circle cx="27.5" cy="32.5" r="10.5" fill="#D8D8D8" stroke="#979797"/><circle cx="68.5" cy="32.5" r="10.5" fill="#D8D8D8" stroke="#979797"/><circle cx="108.5" cy="32.5" r="10.5" fill="#D8D8D8" stroke="#979797"/><circle cx="148.5" cy="32.5" r="10.5" fill="#D8D8D8" stroke="#979797"/><circle cx="188.5" cy="32.5" r="10.5" fill="#D8D8D8" stroke="#979797"/><circle cx="229.5" cy="32.5" r="10.5" fill="#D8D8D8" stroke="#979797"/><circle cx="269.5" cy="32.5" r="10.5" fill="#D8D8D8" stroke="#979797"/><circle cx="309.5" cy="32.5" r="10.5" fill="#D8D8D8" stroke="#979797"/><text fill="#000" font-family="PTSans-Regular, PT Sans" font-size="12"><tspan x="0" y="11">Каждый элемент — mousemove event</tspan></text></g><path stroke="#FFF" d="M.5.5h369v301H.5z"/></g></svg>
