<?xml version="1.0" standalone="no"?>
<!DOCTYPE svg PUBLIC "-//W3C//DTD SVG 20010904//EN"
 "http://www.w3.org/TR/2001/REC-SVG-20010904/DTD/svg10.dtd">
<svg version="1.0" xmlns="http://www.w3.org/2000/svg"
 width="1024.000000pt" height="1024.000000pt" viewBox="0 0 1024.000000 1024.000000"
 preserveAspectRatio="xMidYMid meet">
<metadata>
Created by potrace 1.11, written by Peter Selinger 2001-2013
</metadata>
<g transform="translate(0.000000,1024.000000) scale(0.100000,-0.100000)"
fill="#000000" stroke="none">
<path d="M2741 5232 c-344 -895 -640 -1666 -658 -1713 -33 -84 -35 -87 -71
-94 -52 -10 -217 -63 -279 -91 l-53 -23 0 -75 0 -76 575 0 576 0 -3 78 -3 77
-125 42 c-69 23 -167 50 -217 60 -51 10 -93 23 -93 28 0 6 76 219 168 475
l168 465 621 3 621 2 15 -37 c55 -141 339 -914 336 -916 -2 -2 -56 -15 -119
-31 -63 -16 -155 -42 -205 -60 l-90 -31 -3 -77 -3 -78 666 0 665 0 0 76 0 75
-65 30 c-36 17 -124 45 -197 63 -73 18 -136 39 -140 47 -7 11 -1267 3288
-1300 3382 -10 26 -12 27 -86 27 l-77 0 -624 -1628z m683 738 c43 -196 54
-230 250 -755 113 -302 204 -551 202 -552 -2 -2 -237 -2 -523 -1 l-520 3 198
540 c112 303 221 619 249 720 87 307 82 292 91 270 5 -11 29 -112 53 -225z"/>
<path d="M5382 6723 l3 -77 95 -38 c52 -20 146 -49 208 -64 l112 -27 0 -1541
0 -1542 -67 -12 c-89 -15 -226 -55 -297 -86 l-56 -25 0 -74 0 -74 757 -6 c823
-7 861 -5 1078 49 434 109 749 409 832 794 25 118 25 380 -1 500 -66 312 -261
552 -554 681 -248 109 -609 151 -981 115 -91 -9 -175 -16 -188 -16 l-23 0 0
625 0 625 553 0 553 0 134 -335 134 -335 67 0 67 0 6 33 c23 123 56 597 56
800 l0 107 -1245 0 -1246 0 3 -77z m1590 -1716 c249 -66 418 -216 493 -436 38
-111 48 -203 42 -373 -6 -179 -20 -244 -83 -376 -75 -155 -218 -287 -379 -347
-119 -45 -223 -59 -445 -59 -113 0 -226 3 -252 7 l-48 8 0 794 0 793 63 10
c34 6 163 9 287 8 205 -3 234 -5 322 -29z"/>
</g>
</svg>
